<svg xmlns="http://www.w3.org/2000/svg" viewBox="0 0 64 64" role="img" aria-label="wink 小熊图标">
  <defs>
    <linearGradient id="face" x1="14" y1="10" x2="50" y2="56" gradientUnits="userSpaceOnUse">
      <stop offset="0" stop-color="#fffdfb" />
      <stop offset="0.58" stop-color="#ffe5dc" />
      <stop offset="1" stop-color="#ffc8b8" />
    </linearGradient>
  </defs>

  <circle cx="32" cy="32" r="29" fill="#fff8f5" />

  <circle cx="17.5" cy="18.5" r="9.5" fill="#ffd6ca" stroke="#2f2a28" stroke-width="3.3" />
  <circle cx="46.5" cy="18.5" r="9.5" fill="#ffd6ca" stroke="#2f2a28" stroke-width="3.3" />
  <circle cx="17.5" cy="18.5" r="4.3" fill="#fff8f5" />
  <circle cx="46.5" cy="18.5" r="4.3" fill="#fff8f5" />

  <circle cx="32" cy="34" r="24" fill="url(#face)" stroke="#2f2a28" stroke-width="3.5" />

  <path d="M20.5 30.5c2.9-2.5 6.1-2.5 9 0" fill="none" stroke="#2f2a28" stroke-linecap="round" stroke-width="3.4" />
  <circle cx="42.5" cy="30.5" r="2.8" fill="#2f2a28" />

  <ellipse cx="32" cy="40.3" rx="8.2" ry="6.6" fill="#fff8f5" stroke="#2f2a28" stroke-width="2.8" />
  <path d="M28.8 38.1c1.6-1.2 4.8-1.2 6.4 0" fill="none" stroke="#2f2a28" stroke-linecap="round" stroke-width="2.6" />
  <path d="M32 39.6v2.6" stroke="#2f2a28" stroke-linecap="round" stroke-width="2.4" />
  <path d="M28.8 43c1.9 1.7 4.5 1.7 6.4 0" fill="none" stroke="#2f2a28" stroke-linecap="round" stroke-width="2.4" />

  <circle cx="17.8" cy="36.7" r="3.4" fill="#ff8a8a" opacity="0.82" />
  <circle cx="46.2" cy="36.7" r="3.4" fill="#ff8a8a" opacity="0.82" />

  <path d="M49.4 43.6l1.2 2.5 2.7.4-1.9 1.9.4 2.7-2.4-1.3-2.4 1.3.5-2.7-2-1.9 2.7-.4z" fill="#ffd36e" stroke="#2f2a28" stroke-linejoin="round" stroke-width="1.4" />
</svg>
